:SAMPLES-PER-SECOND 30
:FRAME-RANGE 1-2775
:FULLY-SPECIFIED
:DEGREES
1822
root  69.282 39.0714 -1.00234 -169.996 -53.1786 170.756
RightUpLeg  -10.2804 -9.71583 -12.5759
RightLeg  59.3059 -6.1259 -11.4703
RightFoot  1.92798 -0.966426 8.40746
RightToes  1.218e-010 1.26228e-014 -6.01869e-014
Spine  -7.37334 4.28496 0.957666
Spine1  11.9644 6.11812 -8.59548
HEad  3.92668 50.5901 -9.67971
LeftShoulder1  0.107974 2.94759 -24.2994
LeftArm  -3.00742 5.59787 -49.5886
LeftForeArm  26.5124 5.9088 -12.5948
LeftHand  0.116461 6.79077 11.4532
RightShoulder  1.94727 3.06535 24.4865
RightArm  -25.7531 2.15359 50.3859
RightForeArm  62.0912 -5.57132 3.35828
RightHand  0.427708 -7.22349 -26.9351
LeftUpLeg  -15.8924 0.465518 -8.02888
LeftLeg  12.8447 16.6191 2.37724
LeftFoot  -0.955785 -0.285042 3.19954
LeftToes  5.08156e-010 -6.90346e-011 -6.33378e-011
1823
root  68.819 39.0009 -1.33288 -169.971 -54.5086 170.501
RightUpLeg  -12.7653 -6.93043 -11.8982
RightLeg  61.7347 -4.23809 -9.01324
RightFoot  -1.88202 -0.78781 9.3464
RightToes  1.218e-010 1.26228e-014 -6.01869e-014
Spine  -6.97306 4.06703 -0.0393072
Spine1  11.9492 5.74195 -8.41486
HEad  5.01768 50.348 -8.91288
LeftShoulder1  0.163756 2.76336 -24.2856
LeftArm  -2.74185 3.97409 -49.8172
LeftForeArm  26.3505 5.88057 -12.6473
LeftHand  0.125993 6.82715 11.8921
RightShoulder  1.98329 3.19596 24.4268
RightArm  -26.8401 1.68371 50.4573
RightForeArm  61.4901 -5.50014 2.80823
RightHand  0.385232 -7.00134 -27.552
LeftUpLeg  -15.591 0.713516 -8.24126
LeftLeg  14.7107 15.0441 2.60893
LeftFoot  -2.74575 -0.207243 2.97793
LeftToes  5.08156e-010 -6.90346e-011 -6.33378e-011
1824
root  68.3672 38.9766 -1.69116 -170.092 -56.2273 170.563
RightUpLeg  -14.9451 -4.25588 -10.914
RightLeg  61.7892 -3.23563 -7.0443
RightFoot  -4.14664 -0.601395 9.097
RightToes  1.218e-010 1.26228e-014 -6.01869e-014
Spine  -6.44593 3.62159 -1.00724
Spine1  11.5115 5.09607 -7.89369
HEad  5.82 50.2189 -8.4148
LeftShoulder1  0.232267 2.5307 -24.0165
LeftArm  -2.78944 2.69798 -50.352
LeftForeArm  26.9074 5.6594 -12.5631
LeftHand  0.121514 6.76214 12.0414
RightShoulder  1.95578 3.08639 24.5215
RightArm  -27.5732 1.31415 50.4434
RightForeArm  61.1287 -5.44919 2.4308
RightHand  0.379239 -6.93885 -28.1412
LeftUpLeg  -15.123 0.799779 -8.20513
LeftLeg  16.0009 13.2793 2.73855
LeftFoot  -4.15148 -0.156052 2.88218
LeftToes  5.08156e-010 -6.90346e-011 -6.33378e-011
1825
root  67.9281 38.9406 -2.05428 -169.922 -58.1078 170.429
RightUpLeg  -16.8852 -2.2277 -10.2048
RightLeg  60.1865 -3.77 -7.5713
RightFoot  -6.91995 -0.413183 9.46023
RightToes  1.218e-010 1.26228e-014 -6.01869e-014
Spine  -6.01204 3.1024 -2.04237
Spine1  11.086 4.4395 -7.35324
HEad  6.05569 49.9917 -8.06801
LeftShoulder1  0.349282 2.11769 -23.3937
LeftArm  -2.9586 1.55513 -51.2255
LeftForeArm  27.0906 5.46754 -12.4456
LeftHand  0.142248 6.90162 12.5034
RightShoulder  1.91655 2.91188 24.7569
RightArm  -27.5446 0.74513 50.1974
RightForeArm  60.186 -5.4947 2.51059
RightHand  0.393887 -6.93522 -29.1495
LeftUpLeg  -14.7652 1.2181 -8.01188
LeftLeg  17.1945 11.0313 2.22102
LeftFoot  -5.57515 -0.108334 2.81798
LeftToes  5.08156e-010 -6.90346e-011 -6.33378e-011
1826
root  67.4683 38.9413 -2.41337 -169.762 -59.9498 170.319
RightUpLeg  -18.56 -0.768567 -9.79732
RightLeg  57.222 -5.78229 -10.0049
RightFoot  -9.26972 -0.231484 9.29134
RightToes  1.218e-010 1.26228e-014 -6.01869e-014
Spine  -5.76225 2.60496 -2.79895
Spine1  10.9232 3.87538 -6.79314
HEad  5.76208 49.7034 -8.08879
LeftShoulder1  0.445099 1.77063 -22.9583
LeftArm  -2.75854 0.295419 -51.9523
LeftForeArm  26.7729 5.11414 -12.4537
LeftHand  0.16074 6.99803 13.0497
RightShoulder  1.84451 2.62968 25.0137
RightArm  -27.4731 0.289995 49.8716
RightForeArm  59.1595 -5.54461 2.60303
RightHand  0.360656 -6.7702 -29.7963
LeftUpLeg  -14.0715 1.4868 -7.80387
LeftLeg  17.7464 8.99648 1.69783
LeftFoot  -6.71512 -0.0722575 2.78979
LeftToes  5.08156e-010 -6.90346e-011 -6.33378e-011
1827
root  67.0048 38.9656 -2.76632 -169.511 -61.6307 170.199
RightUpLeg  -20.2454 0.439048 -9.83914
RightLeg  53.3069 -8.14756 -11.9111
RightFoot  -9.6656 -0.19378 8.73415
RightToes  1.218e-010 1.26228e-014 -6.01869e-014
Spine  -5.48171 2.14452 -3.27497
Spine1  10.6005 3.41085 -6.34928
HEad  5.16223 49.4031 -8.47272
LeftShoulder1  0.511642 1.5373 -22.8894
LeftArm  -2.324 -1.22142 -52.3217
LeftForeArm  26.9502 5.10368 -12.5648
LeftHand  0.149679 6.88013 13.18
RightShoulder  1.79199 2.4232 25.2212
RightArm  -27.192 -0.0278963 49.4454
RightForeArm  58.0802 -5.61222 2.79441
RightHand  0.338586 -6.64855 -30.5599
LeftUpLeg  -13.3338 1.61098 -7.59806
LeftLeg  17.9764 7.41539 1.32627
LeftFoot  -7.59713 -0.0521247 2.99361
LeftToes  5.08156e-010 -6.90346e-011 -6.33378e-011
1828
root  66.5504 38.9775 -3.10674 -169.051 -63.1442 169.917
RightUpLeg  -21.7654 1.4032 -10.4944
RightLeg  48.4798 -9.67397 -11.8056
RightFoot  -9.61962 -0.198304 8.82158
RightToes  1.218e-010 1.26228e-014 -6.01869e-014
Spine  -5.09733 1.75526 -3.4469
Spine1  10.1382 3.09644 -6.20991
HEad  4.83242 49.1529 -8.69655
LeftShoulder1  0.596922 1.23432 -22.7664
LeftArm  -2.29786 -2.43954 -52.8115
LeftForeArm  27.5743 5.09661 -12.54
LeftHand  0.1545 6.89994 13.361
RightShoulder  1.79828 2.45893 25.1331
RightArm  -27.5819 -0.4531 49.2383
RightForeArm  57.8202 -5.59018 2.61292
RightHand  0.318763 -6.55107 -31.096
LeftUpLeg  -12.655 1.82218 -7.36687
LeftLeg  18.1464 5.83424 0.781803
LeftFoot  -8.48732 -0.0269383 3.1313
LeftToes  5.08156e-010 -6.90346e-011 -6.33378e-011
1829
root  66.0913 39.0088 -3.44317 -168.598 -64.6143 169.723
RightUpLeg  -22.9425 2.17818 -11.4316
RightLeg  42.671 -10.1606 -10.1477
RightFoot  -9.4391 -0.2157 9.10212
RightToes  1.218e-010 1.26228e-014 -6.01869e-014
Spine  -4.82946 1.44774 -3.33495
Spine1  9.84617 2.87969 -6.07702
HEad  4.35521 48.8349 -9.11002
LeftShoulder1  0.670887 0.989607 -22.9235
LeftArm  -2.17759 -3.74348 -53.0581
LeftForeArm  28.0844 5.24533 -12.5364
LeftHand  0.163476 6.94724 13.5197
RightShoulder  1.77494 2.39633 25.0607
RightArm  -27.7747 -0.740183 48.8925
RightForeArm  57.0969 -5.60048 2.5358
RightHand  0.322806 -6.54438 -31.5893
LeftUpLeg  -11.89 1.90747 -7.08007
LeftLeg  17.9823 4.34161 0.311527
LeftFoot  -9.14537 -0.0074389 3.2586
LeftToes  5.08156e-010 -6.90346e-011 -6.33378e-011
